<?xml version="1.0" encoding="UTF-8" standalone="no"?>
<!-- Created with Inkscape (http://www.inkscape.org/) -->

<svg
   width="16.513382mm"
   height="15.863375mm"
   viewBox="0 0 16.513382 15.863376"
   version="1.1"
   id="svg5"
   inkscape:version="1.2-alpha1 (b6a15bbbed, 2022-02-23)"
   sodipodi:docname="logo.svg"
   inkscape:export-filename="G:\My Drive\inria\2024-05-ntn-grenoble\banner-1.jpg"
   inkscape:export-xdpi="124.22219"
   inkscape:export-ydpi="124.22219"
   xmlns:inkscape="http://www.inkscape.org/namespaces/inkscape"
   xmlns:sodipodi="http://sodipodi.sourceforge.net/DTD/sodipodi-0.dtd"
   xmlns="http://www.w3.org/2000/svg"
   xmlns:svg="http://www.w3.org/2000/svg">
  <sodipodi:namedview
     id="namedview7"
     pagecolor="#ffffff"
     bordercolor="#000000"
     borderopacity="0.25"
     inkscape:pageshadow="2"
     inkscape:pageopacity="0.0"
     inkscape:pagecheckerboard="0"
     inkscape:deskcolor="#d1d1d1"
     inkscape:document-units="mm"
     showgrid="false"
     inkscape:zoom="2.3786088"
     inkscape:cx="104.05242"
     inkscape:cy="-4.2041381"
     inkscape:window-width="1920"
     inkscape:window-height="1129"
     inkscape:window-x="-8"
     inkscape:window-y="-8"
     inkscape:window-maximized="1"
     inkscape:current-layer="layer1"
     showguides="true">
    <sodipodi:guide
       position="-1438.9322,674.52031"
       orientation="1,0"
       id="guide57192" />
    <sodipodi:guide
       position="-1309.4049,658.26111"
       orientation="1,0"
       id="guide160000" />
    <sodipodi:guide
       position="-1203.4749,657.18351"
       orientation="1,0"
       id="guide232239" />
  </sodipodi:namedview>
  <defs
     id="defs2">
    <clipPath
       clipPathUnits="userSpaceOnUse"
       id="clipPath13306">
      <rect
         style="fill:none;stroke:#000000;stroke-width:1.283;paint-order:markers stroke fill;stop-color:#000000"
         id="rect13308"
         width="565.07117"
         height="186.87398"
         x="1265.6609"
         y="690.61963"
         rx="1.4584445"
         ry="1.0090042" />
    </clipPath>
  </defs>
  <g
     inkscape:label="Layer 1"
     inkscape:groupmode="layer"
     id="layer1"
     transform="translate(-1475.9785,-727.04718)">
    <g
       id="g8550"
       transform="matrix(0.54099209,0,0,0.54099209,677.4858,333.72041)">
      <path
         id="path2458"
         style="fill:#ffffff;fill-opacity:1;stroke:none;stroke-width:0.0557783;stroke-miterlimit:4;stroke-dasharray:none;stroke-dashoffset:0;paint-order:fill markers stroke;stop-color:#000000"
         d="m 1490.5715,733.61016 c 0,0 0.1688,0.4468 0.2605,0.68684 l 0.4082,0.47618 v 1.56457 l -0.5214,0.17554 v 0.28335 h -0.2554 v 0.11673 c -2.1773,0.49852 -3.804,2.44938 -3.804,4.77675 0,2.70416 2.196,4.90011 4.9002,4.90011 2.7041,0 4.9012,-2.19595 4.9012,-4.90011 0,-2.47413 -1.8393,-4.52276 -4.2233,-4.85342 v -0.0343 l -0.2833,-0.28334 -0.1643,-2.61869 -0.2526,-0.64965 z m 2.7337,3.91947 c 1.5449,0.64806 2.6511,2.13088 2.7561,3.88608 -0.3337,-0.37591 -1.0313,-0.68619 -1.9453,-0.88865 -0.1741,-1.28288 -0.6297,-2.35571 -1.2365,-2.97494 0.1398,-0.009 0.2811,-0.0167 0.4257,-0.0225 z m -3.4964,0.002 c 0.1431,0.006 0.2861,0.0139 0.4298,0.0228 -0.6057,0.61959 -1.0604,1.69137 -1.2343,2.97264 -0.9148,0.20257 -1.6129,0.51295 -1.9465,0.88922 0.1048,-1.75351 1.2086,-3.23537 2.751,-3.88463 z m 2.5253,0.0556 c 0.4328,0.59895 0.7012,1.59361 0.8123,2.77635 -0.496,-0.0602 -1.0301,-0.0931 -1.5868,-0.0931 -0.5564,0 -1.09,0.0327 -1.5856,0.0928 0.111,-1.18166 0.3789,-2.17555 0.8111,-2.77461 0.2534,0.0147 0.5104,0.0261 0.7745,0.0265 0.269,-4.9e-4 0.5235,-0.0126 0.7745,-0.0279 z m -0.7745,3.78577 c 0.5675,3e-5 1.1234,0.0301 1.6441,0.0876 0,0.0759 0,0.15235 0,0.22915 -2e-4,1.02242 -0.098,1.97271 -0.2958,2.74867 -0.4387,-0.0376 -0.8911,-0.0571 -1.3532,-0.0571 -0.4763,2.2e-4 -0.9205,0.0327 -1.3383,0.0859 -0.203,-0.78121 -0.3034,-1.74233 -0.3036,-2.7775 0,-0.0769 0,-0.1534 0,-0.22944 0.5206,-0.0575 1.0759,-0.0873 1.6433,-0.0873 z m -2.6322,0.23982 c -3e-4,0.0256 0,0.0513 0,0.077 0,1.09369 0.1992,2.10024 0.5335,2.89971 -0.3962,0.0766 -0.768,0.16722 -1.121,0.25971 -0.6547,-0.66732 -1.1031,-1.5377 -1.2431,-2.50857 0.3726,-0.31874 1.0248,-0.56386 1.8312,-0.72781 z m 5.2653,0 c 0.806,0.16393 1.4577,0.40923 1.8303,0.72781 -0.1333,0.92456 -0.5464,1.758 -1.1509,2.41172 -0.3772,-0.0924 -0.7742,-0.16791 -1.1864,-0.22627 0.3185,-0.789 0.5076,-1.77133 0.5076,-2.8363 0,-0.0257 0,-0.0513 0,-0.077 z"
         sodipodi:nodetypes="ccccccccsssccccccscccssscccssscscccssscccccscssssccccsscccsss" />
      <path
         style="color:#000000;fill:#ffffff;stroke-width:0.557783;-inkscape-stroke:none;paint-order:fill markers stroke"
         d="m 1491.6088,727.07985 c -8.0857,0 -14.645,6.55931 -14.645,14.64504 0,8.08573 6.5593,14.64504 14.645,14.64504 8.0857,0 14.6451,-6.55931 14.6451,-14.64504 0,-8.08573 -6.5594,-14.64504 -14.6451,-14.64504 z m 0,0.44666 c 7.8446,0 14.1995,6.35381 14.1995,14.19838 0,7.84458 -6.3549,14.19947 -14.1995,14.19947 -7.8446,0 -14.1995,-6.35489 -14.1995,-14.19947 0,-7.84457 6.3549,-14.19838 14.1995,-14.19838 z"
         id="path2460" />
      <path
         style="color:#000000;fill:#ffffff;stroke-width:0.557783;-inkscape-stroke:none;paint-order:fill markers stroke"
         d="m 1491.6088,731.2643 c -5.7756,0 -10.4606,4.68501 -10.4606,10.46059 0,5.77558 4.685,10.46059 10.4606,10.46059 5.7756,0 10.4606,-4.68501 10.4606,-10.46059 0,-5.77558 -4.685,-10.46059 -10.4606,-10.46059 z m 0,0.26364 c 5.633,0 10.197,4.56395 10.197,10.19695 0,5.633 -4.564,10.19695 -10.197,10.19695 -5.633,0 -10.1969,-4.56395 -10.1969,-10.19695 0,-5.633 4.5639,-10.19695 10.1969,-10.19695 z"
         id="path2462" />
      <path
         style="color:#000000;fill:#ffffff;stroke-width:0.33467;-inkscape-stroke:none;paint-order:fill markers stroke"
         d="m 1477.0425,738.47801 23.4633,-8.51282"
         id="path2464" />
      <path
         style="color:#000000;fill:#ffffff;stroke-width:0.557783;-inkscape-stroke:none;paint-order:fill markers stroke"
         d="m 1500.4484,729.80775 -23.4628,8.51271 0.1144,0.31484 23.4627,-8.51271 z"
         id="path2466" />
      <path
         id="path2468"
         style="fill:#ffffff;fill-opacity:1;stroke:none;stroke-width:0.0534974;stroke-miterlimit:4;stroke-dasharray:none;stroke-dashoffset:0;paint-order:fill markers stroke;stop-color:#000000"
         d="m 1485.3961,727.64542 c -0.7041,0.0107 -1.1722,0.9111 -0.7487,1.47965 0.3355,0.62272 1.3568,0.58157 1.6525,-0.0595 0.3805,-0.6382 -0.1648,-1.48856 -0.9038,-1.42016 z" />
      <path
         id="path2470"
         style="fill:#ffffff;fill-opacity:1;stroke:none;stroke-width:0.0534974;stroke-miterlimit:4;stroke-dasharray:none;stroke-dashoffset:0;paint-order:fill markers stroke;stop-color:#000000"
         d="m 1505.5926,744.36673 c 0.6821,0.0128 1.1502,0.85702 0.7796,1.43215 -0.3022,0.63886 -1.3257,0.66212 -1.6529,0.0347 -0.4443,-0.61953 0.1212,-1.551 0.8733,-1.46689 z" />
      <path
         id="path2472"
         style="fill:#ffffff;fill-opacity:1;stroke:none;stroke-width:0.0534974;stroke-miterlimit:4;stroke-dasharray:none;stroke-dashoffset:0;paint-order:fill markers stroke;stop-color:#000000"
         d="m 1477.7144,746.29609 c 0.704,-0.0107 1.1722,-0.9111 0.7486,-1.47965 -0.3354,-0.62273 -1.3567,-0.58158 -1.6524,0.0595 -0.3826,0.63722 0.1655,1.4896 0.9038,1.42016 z" />
      <path
         id="path2474"
         style="fill:#ffffff;fill-opacity:1;stroke:none;stroke-width:0.0534974;stroke-miterlimit:4;stroke-dasharray:none;stroke-dashoffset:0;paint-order:fill markers stroke;stop-color:#000000"
         d="m 1484.9922,748.2219 c -0.4913,-0.47325 -1.4194,-0.20735 -1.5639,0.46143 -0.2363,0.66549 0.4703,1.4039 1.1442,1.19336 0.752,-0.12409 1.0115,-1.18218 0.4197,-1.65479 z" />
      <path
         id="path2476"
         style="fill:#ffffff;fill-opacity:1;stroke:none;stroke-width:0.0534974;stroke-miterlimit:4;stroke-dasharray:none;stroke-dashoffset:0;paint-order:fill markers stroke;stop-color:#000000"
         d="m 1500.9893,735.68917 c -0.4928,-0.47058 -1.4191,-0.20591 -1.5639,0.46297 -0.2363,0.66548 0.4702,1.40389 1.1442,1.19335 0.7534,-0.12466 1.011,-1.18246 0.4197,-1.65632 z" />
      <rect
         style="fill:#ffffff;fill-opacity:1;stroke:none;stroke-width:0.0144039;stroke-miterlimit:4;stroke-dasharray:none;stroke-dashoffset:0;paint-order:fill markers stroke;stop-color:#000000"
         id="rect2478"
         width="1.3284442"
         height="2.2708452"
         x="1203.1212"
         y="-1156.261"
         rx="0.2069048"
         ry="0.20598759"
         transform="rotate(69.769137)" />
      <rect
         style="fill:#ffffff;fill-opacity:1;stroke:none;stroke-width:0.0144039;stroke-miterlimit:4;stroke-dasharray:none;stroke-dashoffset:0;paint-order:fill markers stroke;stop-color:#000000"
         id="rect2480"
         width="1.3284445"
         height="2.2708452"
         x="-1155.7899"
         y="-1203.0133"
         rx="0.20690483"
         ry="0.20598759"
         transform="rotate(159.76914)" />
      <rect
         style="fill:#ffffff;fill-opacity:1;stroke:none;stroke-width:0.0144039;stroke-miterlimit:4;stroke-dasharray:none;stroke-dashoffset:0;paint-order:fill markers stroke;stop-color:#000000"
         id="rect2482"
         width="1.3284445"
         height="2.2708452"
         x="-1155.7899"
         y="-1206.8284"
         rx="0.20690483"
         ry="0.20598759"
         transform="rotate(159.76914)" />
      <path
         id="path2484"
         style="fill:#ffffff;fill-opacity:1;stroke:none;stroke-width:0.00825234;stroke-miterlimit:4;stroke-dasharray:none;stroke-dashoffset:0;paint-order:fill markers stroke;stop-color:#000000"
         d="m 1501.3107,729.64017 a 0.71986846,0.71986846 0 0 1 0.185,-0.77496 l 0.4589,1.24513 a 0.71986846,0.71986846 0 0 1 -0.6439,-0.47017 z" />
      <path
         id="path2486"
         style="fill:#ffffff;fill-opacity:1;stroke:none;stroke-width:0.0144039;stroke-miterlimit:4;stroke-dasharray:none;stroke-dashoffset:0;paint-order:fill markers stroke;stop-color:#000000"
         d="m 1498.9337,730.52723 a 1.2564837,1.2564837 0 0 0 -1.1235,-0.81957 l 0.3633,0.98573 -0.062,0.0515 a 0.14853002,0.14853002 0 0 0 -0.1404,-0.0206 0.14853002,0.14853002 0 0 0 -0.088,0.19064 0.14853002,0.14853002 0 0 0 0.1908,0.088 0.14853002,0.14853002 0 0 0 0.094,-0.11007 l 0.079,-2.4e-4 0.3643,0.9884 a 1.2564837,1.2564837 0 0 0 0.3225,-1.35372 z" />
      <rect
         style="fill:#ffffff;fill-opacity:1;stroke:none;stroke-width:0.0144039;stroke-miterlimit:4;stroke-dasharray:none;stroke-dashoffset:0;paint-order:fill markers stroke;stop-color:#000000"
         id="rect2492"
         width="1.3284444"
         height="2.2708452"
         x="-1204.3849"
         y="1130.2069"
         rx="0.20690483"
         ry="0.20598759"
         transform="rotate(-110.23086)" />
      <rect
         style="fill:#ffffff;fill-opacity:1;stroke:none;stroke-width:0.0144039;stroke-miterlimit:4;stroke-dasharray:none;stroke-dashoffset:0;paint-order:fill markers stroke;stop-color:#000000"
         id="rect2494"
         width="1.3284445"
         height="2.2708452"
         x="1130.6781"
         y="1204.4928"
         rx="0.20690481"
         ry="0.20598759"
         transform="rotate(-20.230865)" />
      <rect
         style="fill:#ffffff;fill-opacity:1;stroke:none;stroke-width:0.0144039;stroke-miterlimit:4;stroke-dasharray:none;stroke-dashoffset:0;paint-order:fill markers stroke;stop-color:#000000"
         id="rect2496"
         width="1.3284445"
         height="2.2708452"
         x="1130.6781"
         y="1200.6779"
         rx="0.20690481"
         ry="0.20598759"
         transform="rotate(-20.230865)" />
      <path
         id="path2498"
         style="fill:#ffffff;fill-opacity:1;stroke:none;stroke-width:0.00825234;stroke-miterlimit:4;stroke-dasharray:none;stroke-dashoffset:0;paint-order:fill markers stroke;stop-color:#000000"
         d="m 1476.6224,738.67047 a 0.71986846,0.71986846 0 0 1 -0.185,0.77496 l -0.4589,-1.24513 a 0.71986846,0.71986846 0 0 1 0.6439,0.47017 z" />
      <path
         id="path2500"
         style="fill:#ffffff;fill-opacity:1;stroke:none;stroke-width:0.0144039;stroke-miterlimit:4;stroke-dasharray:none;stroke-dashoffset:0;paint-order:fill markers stroke;stop-color:#000000"
         d="m 1478.9993,737.78341 a 1.2564837,1.2564837 0 0 0 1.1235,0.81957 l -0.3633,-0.98573 0.062,-0.0515 a 0.14853002,0.14853002 0 0 0 0.1404,0.0206 0.14853002,0.14853002 0 0 0 0.088,-0.19064 0.14853002,0.14853002 0 0 0 -0.1907,-0.088 0.14853002,0.14853002 0 0 0 -0.094,0.11006 l -0.079,2.5e-4 -0.3643,-0.98841 a 1.2564837,1.2564837 0 0 0 -0.3226,1.35373 z" />
      <g
         id="path2502"
         style="fill:#ffffff">
        <path
           style="color:#000000;fill:#ffffff;stroke-width:0.196773;-inkscape-stroke:none;paint-order:fill markers stroke"
           d="m 1484.7262,749.44479 6.8869,5.05502"
           id="path6981" />
        <path
           style="color:#000000;fill:#ffffff;-inkscape-stroke:none;paint-order:fill markers stroke"
           d="m 1484.7852,749.36523 -0.1172,0.15821 6.8867,5.05664 0.1172,-0.16016 z"
           id="path6983" />
      </g>
      <g
         id="path2504"
         style="fill:#ffffff">
        <path
           style="color:#000000;fill:#ffffff;stroke-width:0.196773;-inkscape-stroke:none;paint-order:fill markers stroke"
           d="m 1498.512,749.44479 -6.8869,5.05502"
           id="path6987" />
        <path
           style="color:#000000;fill:#ffffff;-inkscape-stroke:none;paint-order:fill markers stroke"
           d="m 1498.4531,749.36523 -6.8867,5.05469 0.1172,0.16016 6.8867,-5.05664 z"
           id="path6989" />
      </g>
    </g>
  </g>
</svg>
